{
	"asset":{
		"generator":"Khronos glTF Blender I/O v4.2.57",
		"version":"2.0"
	},
	"extensionsUsed":[
		"KHR_materials_clearcoat",
		"KHR_materials_transmission"
	],
	"scene":0,
	"scenes":[
		{
			"name":"Scene",
			"nodes":[
				6
			]
		}
	],
	"nodes":[
		{
			"mesh":0,
			"name":"left propellor",
			"translation":[
				-5.084229946136475,
				0.041111622005701065,
				-4.156167507171631
			]
		},
		{
			"mesh":1,
			"name":"right propellor",
			"translation":[
				5.030567646026611,
				0.041111622005701065,
				-4.156167507171631
			]
		},
		{
			"children":[
				0,
				1
			],
			"mesh":2,
			"name":"left engine",
			"translation":[
				0,
				0,
				-0.19999998807907104
			]
		},
		{
			"mesh":3,
			"name":"right engine",
			"translation":[
				0,
				0,
				-0.19999998807907104
			]
		},
		{
			"mesh":4,
			"name":"side windows",
			"translation":[
				0,
				0,
				0.6716117858886719
			]
		},
		{
			"mesh":5,
			"name":"tail"
		},
		{
			"children":[
				2,
				3,
				4,
				5
			],
			"mesh":6,
			"name":"body"
		}
	],
	"animations":[
		{
			"channels":[
				{
					"sampler":0,
					"target":{
						"node":6,
						"path":"translation"
					}
				},
				{
					"sampler":1,
					"target":{
						"node":6,
						"path":"rotation"
					}
				},
				{
					"sampler":2,
					"target":{
						"node":6,
						"path":"scale"
					}
				}
			],
			"name":"bodyIdle",
			"samplers":[
				{
					"input":36,
					"interpolation":"LINEAR",
					"output":37
				},
				{
					"input":38,
					"interpolation":"STEP",
					"output":39
				},
				{
					"input":38,
					"interpolation":"STEP",
					"output":40
				}
			]
		},
		{
			"channels":[
				{
					"sampler":0,
					"target":{
						"node":0,
						"path":"translation"
					}
				},
				{
					"sampler":1,
					"target":{
						"node":0,
						"path":"rotation"
					}
				},
				{
					"sampler":2,
					"target":{
						"node":0,
						"path":"scale"
					}
				}
			],
			"name":"LeftPropellorFull",
			"samplers":[
				{
					"input":41,
					"interpolation":"STEP",
					"output":42
				},
				{
					"input":43,
					"interpolation":"LINEAR",
					"output":44
				},
				{
					"input":41,
					"interpolation":"STEP",
					"output":45
				}
			]
		},
		{
			"channels":[
				{
					"sampler":0,
					"target":{
						"node":0,
						"path":"translation"
					}
				},
				{
					"sampler":1,
					"target":{
						"node":0,
						"path":"rotation"
					}
				},
				{
					"sampler":2,
					"target":{
						"node":0,
						"path":"scale"
					}
				}
			],
			"name":"EndLeftPropellor",
			"samplers":[
				{
					"input":46,
					"interpolation":"STEP",
					"output":47
				},
				{
					"input":48,
					"interpolation":"LINEAR",
					"output":49
				},
				{
					"input":46,
					"interpolation":"STEP",
					"output":50
				}
			]
		},
		{
			"channels":[
				{
					"sampler":0,
					"target":{
						"node":1,
						"path":"translation"
					}
				},
				{
					"sampler":1,
					"target":{
						"node":1,
						"path":"rotation"
					}
				},
				{
					"sampler":2,
					"target":{
						"node":1,
						"path":"scale"
					}
				}
			],
			"name":"FullRightPropellor",
			"samplers":[
				{
					"input":41,
					"interpolation":"STEP",
					"output":51
				},
				{
					"input":43,
					"interpolation":"LINEAR",
					"output":52
				},
				{
					"input":41,
					"interpolation":"STEP",
					"output":53
				}
			]
		},
		{
			"channels":[
				{
					"sampler":0,
					"target":{
						"node":1,
						"path":"translation"
					}
				},
				{
					"sampler":1,
					"target":{
						"node":1,
						"path":"rotation"
					}
				},
				{
					"sampler":2,
					"target":{
						"node":1,
						"path":"scale"
					}
				}
			],
			"name":"EndRightPropellor",
			"samplers":[
				{
					"input":46,
					"interpolation":"STEP",
					"output":54
				},
				{
					"input":48,
					"interpolation":"LINEAR",
					"output":55
				},
				{
					"input":46,
					"interpolation":"STEP",
					"output":56
				}
			]
		}
	],
	"materials":[
		{
			"doubleSided":true,
			"extensions":{
				"KHR_materials_clearcoat":{
					"clearcoatFactor":1
				}
			},
			"name":"white propellor",
			"pbrMetallicRoughness":{
				"baseColorFactor":[
					0.9472944736480713,
					0.9559633731842041,
					0.9734438061714172,
					1
				],
				"roughnessFactor":0.8999999761581421
			}
		},
		{
			"doubleSided":true,
			"extensions":{
				"KHR_materials_clearcoat":{
					"clearcoatFactor":1
				}
			},
			"name":"engine",
			"pbrMetallicRoughness":{
				"baseColorFactor":[
					0.9472944736480713,
					0.9559633731842041,
					0.9734438061714172,
					1
				],
				"roughnessFactor":0.8999999761581421
			}
		},
		{
			"doubleSided":true,
			"name":"propellor",
			"pbrMetallicRoughness":{
				"baseColorFactor":[
					0.800000011920929,
					0.800000011920929,
					0.800000011920929,
					1
				],
				"roughnessFactor":0.30000001192092896
			}
		},
		{
			"doubleSided":true,
			"extensions":{
				"KHR_materials_clearcoat":{
					"clearcoatFactor":1
				},
				"KHR_materials_transmission":{
					"transmissionFactor":1
				}
			},
			"name":"window",
			"pbrMetallicRoughness":{
				"baseColorFactor":[
					0.800000011920929,
					0.800000011920929,
					0.800000011920929,
					1
				],
				"metallicFactor":0,
				"roughnessFactor":0
			}
		},
		{
			"doubleSided":true,
			"extensions":{
				"KHR_materials_clearcoat":{
					"clearcoatFactor":1
				}
			},
			"name":"tail",
			"pbrMetallicRoughness":{
				"baseColorFactor":[
					0.9472944736480713,
					0.9559633731842041,
					0.9734438061714172,
					1
				],
				"roughnessFactor":0.8999999761581421
			}
		},
		{
			"doubleSided":true,
			"extensions":{
				"KHR_materials_clearcoat":{
					"clearcoatFactor":1
				}
			},
			"name":"body",
			"pbrMetallicRoughness":{
				"baseColorFactor":[
					0.9472944736480713,
					0.9559633731842041,
					0.9734438061714172,
					1
				],
				"roughnessFactor":0.8999999761581421
			}
		}
	],
	"meshes":[
		{
			"name":"Cylinder.005",
			"primitives":[
				{
					"attributes":{
						"POSITION":0,
						"NORMAL":1,
						"TEXCOORD_0":2
					},
					"indices":3,
					"material":0
				}
			]
		},
		{
			"name":"Cylinder.006",
			"primitives":[
				{
					"attributes":{
						"POSITION":4,
						"NORMAL":5,
						"TEXCOORD_0":6
					},
					"indices":7,
					"material":0
				}
			]
		},
		{
			"name":"Cylinder.002",
			"primitives":[
				{
					"attributes":{
						"POSITION":8,
						"NORMAL":9,
						"TEXCOORD_0":10
					},
					"indices":11,
					"material":1
				},
				{
					"attributes":{
						"POSITION":12,
						"NORMAL":13,
						"TEXCOORD_0":14
					},
					"indices":15,
					"material":2
				}
			]
		},
		{
			"name":"Cylinder.001",
			"primitives":[
				{
					"attributes":{
						"POSITION":16,
						"NORMAL":17,
						"TEXCOORD_0":18
					},
					"indices":19,
					"material":1
				},
				{
					"attributes":{
						"POSITION":20,
						"NORMAL":21,
						"TEXCOORD_0":22
					},
					"indices":23,
					"material":2
				}
			]
		},
		{
			"name":"Cube.010",
			"primitives":[
				{
					"attributes":{
						"POSITION":24,
						"NORMAL":25,
						"TEXCOORD_0":26
					},
					"indices":27,
					"material":3
				}
			]
		},
		{
			"name":"Cube.002",
			"primitives":[
				{
					"attributes":{
						"POSITION":28,
						"NORMAL":29,
						"TEXCOORD_0":30
					},
					"indices":31,
					"material":4
				}
			]
		},
		{
			"name":"Cube.003",
			"primitives":[
				{
					"attributes":{
						"POSITION":32,
						"NORMAL":33,
						"TEXCOORD_0":34
					},
					"indices":35,
					"material":5
				}
			]
		}
	],
	"accessors":[
		{
			"bufferView":0,
			"componentType":5126,
			"count":735,
			"max":[
				1.8672688007354736,
				2.147712230682373,
				0.16596174240112305
			],
			"min":[
				-1.874547004699707,
				-1.0999200344085693,
				-0.15062427520751953
			],
			"type":"VEC3"
		},
		{
			"bufferView":1,
			"componentType":5126,
			"count":735,
			"type":"VEC3"
		},
		{
			"bufferView":2,
			"componentType":5126,
			"count":735,
			"type":"VEC2"
		},
		{
			"bufferView":3,
			"componentType":5123,
			"count":3528,
			"type":"SCALAR"
		},
		{
			"bufferView":4,
			"componentType":5126,
			"count":735,
			"max":[
				1.8873211145401,
				2.1477274894714355,
				0.16596147418022156
			],
			"min":[
				-1.8540325164794922,
				-1.1225945949554443,
				-0.1506241261959076
			],
			"type":"VEC3"
		},
		{
			"bufferView":5,
			"componentType":5126,
			"count":735,
			"type":"VEC3"
		},
		{
			"bufferView":6,
			"componentType":5126,
			"count":735,
			"type":"VEC2"
		},
		{
			"bufferView":7,
			"componentType":5123,
			"count":3528,
			"type":"SCALAR"
		},
		{
			"bufferView":8,
			"componentType":5126,
			"count":6916,
			"max":[
				-3.9723432064056396,
				0.922473132610321,
				4.221721649169922
			],
			"min":[
				-6.229204177856445,
				-0.9383188486099243,
				-4.021970748901367
			],
			"type":"VEC3"
		},
		{
			"bufferView":9,
			"componentType":5126,
			"count":6916,
			"type":"VEC3"
		},
		{
			"bufferView":10,
			"componentType":5126,
			"count":6916,
			"type":"VEC2"
		},
		{
			"bufferView":11,
			"componentType":5123,
			"count":38076,
			"type":"SCALAR"
		},
		{
			"bufferView":12,
			"componentType":5126,
			"count":2604,
			"max":[
				-4.682018280029297,
				0.37653955817222595,
				-3.692878484725952
			],
			"min":[
				-5.4401068687438965,
				-0.37956804037094116,
				-4.943349838256836
			],
			"type":"VEC3"
		},
		{
			"bufferView":13,
			"componentType":5126,
			"count":2604,
			"type":"VEC3"
		},
		{
			"bufferView":14,
			"componentType":5126,
			"count":2604,
			"type":"VEC2"
		},
		{
			"bufferView":15,
			"componentType":5123,
			"count":14208,
			"type":"SCALAR"
		},
		{
			"bufferView":16,
			"componentType":5126,
			"count":1899,
			"max":[
				6.234626293182373,
				0.9318201541900635,
				4.221721649169922
			],
			"min":[
				3.9568068981170654,
				-0.9470194578170776,
				-4.023831844329834
			],
			"type":"VEC3"
		},
		{
			"bufferView":17,
			"componentType":5126,
			"count":1899,
			"type":"VEC3"
		},
		{
			"bufferView":18,
			"componentType":5126,
			"count":1899,
			"type":"VEC2"
		},
		{
			"bufferView":19,
			"componentType":5123,
			"count":9660,
			"type":"SCALAR"
		},
		{
			"bufferView":20,
			"componentType":5126,
			"count":726,
			"max":[
				5.443814277648926,
				0.3810098469257355,
				-3.690490961074829
			],
			"min":[
				4.678308963775635,
				-0.38465389609336853,
				-4.945101737976074
			],
			"type":"VEC3"
		},
		{
			"bufferView":21,
			"componentType":5126,
			"count":726,
			"type":"VEC3"
		},
		{
			"bufferView":22,
			"componentType":5126,
			"count":726,
			"type":"VEC2"
		},
		{
			"bufferView":23,
			"componentType":5123,
			"count":3636,
			"type":"SCALAR"
		},
		{
			"bufferView":24,
			"componentType":5126,
			"count":5585,
			"max":[
				2.0980043411254883,
				2.597283363342285,
				2.1322720050811768
			],
			"min":[
				-2.0980043411254883,
				0.8736873865127563,
				-4.655684947967529
			],
			"type":"VEC3"
		},
		{
			"bufferView":25,
			"componentType":5126,
			"count":5585,
			"type":"VEC3"
		},
		{
			"bufferView":26,
			"componentType":5126,
			"count":5585,
			"type":"VEC2"
		},
		{
			"bufferView":27,
			"componentType":5123,
			"count":33408,
			"type":"SCALAR"
		},
		{
			"bufferView":28,
			"componentType":5126,
			"count":3881,
			"max":[
				6.21314811706543,
				4.575766563415527,
				23.083650588989258
			],
			"min":[
				-6.213160037994385,
				-1.2457376718521118,
				13.452397346496582
			],
			"type":"VEC3"
		},
		{
			"bufferView":29,
			"componentType":5126,
			"count":3881,
			"type":"VEC3"
		},
		{
			"bufferView":30,
			"componentType":5126,
			"count":3881,
			"type":"VEC2"
		},
		{
			"bufferView":31,
			"componentType":5123,
			"count":21708,
			"type":"SCALAR"
		},
		{
			"bufferView":32,
			"componentType":5126,
			"count":5310,
			"max":[
				2.076354742050171,
				2.9402520656585693,
				19.984912872314453
			],
			"min":[
				-2.076354742050171,
				-1.2383943796157837,
				-10.454994201660156
			],
			"type":"VEC3"
		},
		{
			"bufferView":33,
			"componentType":5126,
			"count":5310,
			"type":"VEC3"
		},
		{
			"bufferView":34,
			"componentType":5126,
			"count":5310,
			"type":"VEC2"
		},
		{
			"bufferView":35,
			"componentType":5123,
			"count":28440,
			"type":"SCALAR"
		},
		{
			"bufferView":36,
			"componentType":5126,
			"count":12,
			"max":[
				0.5
			],
			"min":[
				0.041666666666666664
			],
			"type":"SCALAR"
		},
		{
			"bufferView":37,
			"componentType":5126,
			"count":12,
			"type":"VEC3"
		},
		{
			"bufferView":38,
			"componentType":5126,
			"count":2,
			"max":[
				0.5
			],
			"min":[
				0.041666666666666664
			],
			"type":"SCALAR"
		},
		{
			"bufferView":39,
			"componentType":5126,
			"count":2,
			"type":"VEC4"
		},
		{
			"bufferView":40,
			"componentType":5126,
			"count":2,
			"type":"VEC3"
		},
		{
			"bufferView":41,
			"componentType":5126,
			"count":2,
			"max":[
				1.5
			],
			"min":[
				1
			],
			"type":"SCALAR"
		},
		{
			"bufferView":42,
			"componentType":5126,
			"count":2,
			"type":"VEC3"
		},
		{
			"bufferView":43,
			"componentType":5126,
			"count":13,
			"max":[
				1.5
			],
			"min":[
				1
			],
			"type":"SCALAR"
		},
		{
			"bufferView":44,
			"componentType":5126,
			"count":13,
			"type":"VEC4"
		},
		{
			"bufferView":45,
			"componentType":5126,
			"count":2,
			"type":"VEC3"
		},
		{
			"bufferView":46,
			"componentType":5126,
			"count":2,
			"max":[
				1
			],
			"min":[
				0.041666666666666664
			],
			"type":"SCALAR"
		},
		{
			"bufferView":47,
			"componentType":5126,
			"count":2,
			"type":"VEC3"
		},
		{
			"bufferView":48,
			"componentType":5126,
			"count":24,
			"max":[
				1
			],
			"min":[
				0.041666666666666664
			],
			"type":"SCALAR"
		},
		{
			"bufferView":49,
			"componentType":5126,
			"count":24,
			"type":"VEC4"
		},
		{
			"bufferView":50,
			"componentType":5126,
			"count":2,
			"type":"VEC3"
		},
		{
			"bufferView":51,
			"componentType":5126,
			"count":2,
			"type":"VEC3"
		},
		{
			"bufferView":52,
			"componentType":5126,
			"count":13,
			"type":"VEC4"
		},
		{
			"bufferView":53,
			"componentType":5126,
			"count":2,
			"type":"VEC3"
		},
		{
			"bufferView":54,
			"componentType":5126,
			"count":2,
			"type":"VEC3"
		},
		{
			"bufferView":55,
			"componentType":5126,
			"count":24,
			"type":"VEC4"
		},
		{
			"bufferView":56,
			"componentType":5126,
			"count":2,
			"type":"VEC3"
		}
	],
	"bufferViews":[
		{
			"buffer":0,
			"byteLength":8820,
			"byteOffset":0,
			"target":34962
		},
		{
			"buffer":0,
			"byteLength":8820,
			"byteOffset":8820,
			"target":34962
		},
		{
			"buffer":0,
			"byteLength":5880,
			"byteOffset":17640,
			"target":34962
		},
		{
			"buffer":0,
			"byteLength":7056,
			"byteOffset":23520,
			"target":34963
		},
		{
			"buffer":0,
			"byteLength":8820,
			"byteOffset":30576,
			"target":34962
		},
		{
			"buffer":0,
			"byteLength":8820,
			"byteOffset":39396,
			"target":34962
		},
		{
			"buffer":0,
			"byteLength":5880,
			"byteOffset":48216,
			"target":34962
		},
		{
			"buffer":0,
			"byteLength":7056,
			"byteOffset":54096,
			"target":34963
		},
		{
			"buffer":0,
			"byteLength":82992,
			"byteOffset":61152,
			"target":34962
		},
		{
			"buffer":0,
			"byteLength":82992,
			"byteOffset":144144,
			"target":34962
		},
		{
			"buffer":0,
			"byteLength":55328,
			"byteOffset":227136,
			"target":34962
		},
		{
			"buffer":0,
			"byteLength":76152,
			"byteOffset":282464,
			"target":34963
		},
		{
			"buffer":0,
			"byteLength":31248,
			"byteOffset":358616,
			"target":34962
		},
		{
			"buffer":0,
			"byteLength":31248,
			"byteOffset":389864,
			"target":34962
		},
		{
			"buffer":0,
			"byteLength":20832,
			"byteOffset":421112,
			"target":34962
		},
		{
			"buffer":0,
			"byteLength":28416,
			"byteOffset":441944,
			"target":34963
		},
		{
			"buffer":0,
			"byteLength":22788,
			"byteOffset":470360,
			"target":34962
		},
		{
			"buffer":0,
			"byteLength":22788,
			"byteOffset":493148,
			"target":34962
		},
		{
			"buffer":0,
			"byteLength":15192,
			"byteOffset":515936,
			"target":34962
		},
		{
			"buffer":0,
			"byteLength":19320,
			"byteOffset":531128,
			"target":34963
		},
		{
			"buffer":0,
			"byteLength":8712,
			"byteOffset":550448,
			"target":34962
		},
		{
			"buffer":0,
			"byteLength":8712,
			"byteOffset":559160,
			"target":34962
		},
		{
			"buffer":0,
			"byteLength":5808,
			"byteOffset":567872,
			"target":34962
		},
		{
			"buffer":0,
			"byteLength":7272,
			"byteOffset":573680,
			"target":34963
		},
		{
			"buffer":0,
			"byteLength":67020,
			"byteOffset":580952,
			"target":34962
		},
		{
			"buffer":0,
			"byteLength":67020,
			"byteOffset":647972,
			"target":34962
		},
		{
			"buffer":0,
			"byteLength":44680,
			"byteOffset":714992,
			"target":34962
		},
		{
			"buffer":0,
			"byteLength":66816,
			"byteOffset":759672,
			"target":34963
		},
		{
			"buffer":0,
			"byteLength":46572,
			"byteOffset":826488,
			"target":34962
		},
		{
			"buffer":0,
			"byteLength":46572,
			"byteOffset":873060,
			"target":34962
		},
		{
			"buffer":0,
			"byteLength":31048,
			"byteOffset":919632,
			"target":34962
		},
		{
			"buffer":0,
			"byteLength":43416,
			"byteOffset":950680,
			"target":34963
		},
		{
			"buffer":0,
			"byteLength":63720,
			"byteOffset":994096,
			"target":34962
		},
		{
			"buffer":0,
			"byteLength":63720,
			"byteOffset":1057816,
			"target":34962
		},
		{
			"buffer":0,
			"byteLength":42480,
			"byteOffset":1121536,
			"target":34962
		},
		{
			"buffer":0,
			"byteLength":56880,
			"byteOffset":1164016,
			"target":34963
		},
		{
			"buffer":0,
			"byteLength":48,
			"byteOffset":1220896
		},
		{
			"buffer":0,
			"byteLength":144,
			"byteOffset":1220944
		},
		{
			"buffer":0,
			"byteLength":8,
			"byteOffset":1221088
		},
		{
			"buffer":0,
			"byteLength":32,
			"byteOffset":1221096
		},
		{
			"buffer":0,
			"byteLength":24,
			"byteOffset":1221128
		},
		{
			"buffer":0,
			"byteLength":8,
			"byteOffset":1221152
		},
		{
			"buffer":0,
			"byteLength":24,
			"byteOffset":1221160
		},
		{
			"buffer":0,
			"byteLength":52,
			"byteOffset":1221184
		},
		{
			"buffer":0,
			"byteLength":208,
			"byteOffset":1221236
		},
		{
			"buffer":0,
			"byteLength":24,
			"byteOffset":1221444
		},
		{
			"buffer":0,
			"byteLength":8,
			"byteOffset":1221468
		},
		{
			"buffer":0,
			"byteLength":24,
			"byteOffset":1221476
		},
		{
			"buffer":0,
			"byteLength":96,
			"byteOffset":1221500
		},
		{
			"buffer":0,
			"byteLength":384,
			"byteOffset":1221596
		},
		{
			"buffer":0,
			"byteLength":24,
			"byteOffset":1221980
		},
		{
			"buffer":0,
			"byteLength":24,
			"byteOffset":1222004
		},
		{
			"buffer":0,
			"byteLength":208,
			"byteOffset":1222028
		},
		{
			"buffer":0,
			"byteLength":24,
			"byteOffset":1222236
		},
		{
			"buffer":0,
			"byteLength":24,
			"byteOffset":1222260
		},
		{
			"buffer":0,
			"byteLength":384,
			"byteOffset":1222284
		},
		{
			"buffer":0,
			"byteLength":24,
			"byteOffset":1222668
		}
	],
	"buffers":[
		{
			"byteLength":1222692,
			"uri":"Diamond-da42-twin-star.bin"
		}
	]
}
